<svg xmlns="http://www.w3.org/2000/svg" xmlns:xlink="http://www.w3.org/1999/xlink" width="500.681" height="114.004" viewBox="0 0 500.681 114.004">
  <defs>
    <linearGradient id="linear-gradient" x1="0.5" x2="0.5" y2="1" gradientUnits="objectBoundingBox">
      <stop offset="0" stop-color="#2faf00"/>
      <stop offset="1" stop-color="#00a2e3"/>
    </linearGradient>
    <clipPath id="clip-path">
      <rect id="Rectangle_1787" data-name="Rectangle 1787" width="368.836" height="52.555" fill="url(#linear-gradient)"/>
    </clipPath>
    <clipPath id="clip-path-2">
      <rect id="Rectangle_539" data-name="Rectangle 539" width="56.777" height="55.859" fill="#fff"/>
    </clipPath>
  </defs>
  <g id="Group_10419" data-name="Group 10419" transform="translate(-80.659 -513)">
    <g id="Group_10418" data-name="Group 10418">
      <path id="Path_12505" data-name="Path 12505" d="M909.82,347.506a.44.44,0,0,0-.451-.45,7.8,7.8,0,0,1-3.8-.772c-1.158-.643-1.223-1.094-1.223-6.05V328.264c0-4.183-.772-6.758-2.7-8.881a10.106,10.106,0,0,0-7.916-3.282c-4.827,0-8.624,2.188-11.842,6.564v-6.243a.277.277,0,0,0-.258-.257l-1.416.129c-.451,0-1.931.129-3.861.322-4.441.257-6.243.451-9.139.451a.508.508,0,0,0-.515.515v1.8a.508.508,0,0,0,.515.515c4.956,0,5.277.386,5.277,5.084v15.253c0,4.956-.064,5.406-1.223,6.05-.9.579-1.866.708-4.054.837a.554.554,0,0,0-.515.515v1.48a1,1,0,0,0,1.03.965h17.441a1,1,0,0,0,1.03-.965v-1.48a.546.546,0,0,0-.45-.515c-2.96-.193-3.218-.965-3.218-7.015v-8.688c0-5.6,2.9-9.4,6.951-9.4,3.475,0,4.956,1.866,4.956,6.371V340.17c0,6.178-.193,6.822-3.475,7.015a.5.5,0,0,0-.451.515v1.48a1,1,0,0,0,1.03.965h17.505a1,1,0,0,0,1.03-.965v-1.673Z" transform="translate(-429.973 213.699)" fill="#0c406c"/>
      <path id="Path_12506" data-name="Path 12506" d="M518.429,340.627a.554.554,0,0,0,.515.515h29.669c6.693,0,10.876-.837,15-3.025,4.312-2.381,6.822-6.178,6.822-10.49,0-4.441-2.639-7.98-7.337-10.1-2.832-1.223-5.6-1.866-10.555-2.381,9.911-1.738,14.481-5.6,14.481-12.357,0-7.98-6.178-11.584-19.758-11.584H518.879a.508.508,0,0,0-.515.515v1.8a.84.84,0,0,0,.772.837h0c3.733.064,4.183.129,5.149.644,1.416.837,1.609,1.8,1.609,6.5V330.78c0,6.114-.644,7.015-4.7,7.079l-2.124.064h0a.744.744,0,0,0-.772.772v1.931Zm19.243-27.095V297.958c0-3.411.322-3.733,3.411-3.733h4.441c2.9,0,4.505.386,6.049,1.416a9.152,9.152,0,0,1,3.8,7.916c0,3.668-1.351,6.436-3.99,8.238-2,1.352-3.411,1.738-6.758,1.738Zm0,3.411h7.144c8.173,0,12.678,3.733,12.678,10.49,0,6.371-4.441,10.426-11.2,10.426h-5.149c-2.9,0-3.475-.644-3.475-4.055V316.943Z" transform="translate(-305.796 222.574)" fill="#0c406c"/>
      <path id="Path_12507" data-name="Path 12507" d="M623.911,347.537a.508.508,0,0,0-.515-.515c-2.7,0-3.733-.064-4.7-.451-1.866-.644-1.931-.965-1.931-6.436v-5.342a19.22,19.22,0,0,1,4.441-12.1,7.687,7.687,0,0,1,2-1.8c.129,0,.193.064.257.193v.064a.225.225,0,0,1-.064.129,5.49,5.49,0,0,0-.386,2,4.939,4.939,0,0,0,5.149,5.02,5.782,5.782,0,0,0,5.792-5.857c0-3.668-2.96-6.178-7.144-6.178a9.763,9.763,0,0,0-6.758,2.7c-1.8,1.545-2.7,3.218-3.99,6.886l-.193-9.2a.481.481,0,0,0-.579-.451,4.975,4.975,0,0,0-.965.129l-3.8.386c-1.545.129-3.089.193-4.569.193l-3.475.064a5.536,5.536,0,0,0-1.03.064.5.5,0,0,0-.451.515v1.866a.546.546,0,0,0,.451.515h.708c3.99.064,4.7.772,4.7,4.7V340.2c0,4.956-.064,5.406-1.223,6.05-.9.579-1.931.708-4.119.837a.508.508,0,0,0-.515.515v1.48a1,1,0,0,0,1.03.965h20.852a1,1,0,0,0,1.03-.965v-1.545Z" transform="translate(-335.271 213.67)" fill="#0c406c"/>
      <path id="Path_12508" data-name="Path 12508" d="M670.617,306.862c-6.114.579-8.174.708-14.8.837a.508.508,0,0,0-.515.515v1.8c0,.258.193.451.515.515,4.827.193,5.02.45,5.02,4.376v15.961c0,4.956-.064,5.406-1.223,6.05a7.276,7.276,0,0,1-3.8.772.5.5,0,0,0-.451.515v1.48a1,1,0,0,0,1.03.965h19.179a1,1,0,0,0,1.03-.965V338.2c0-.257-.193-.45-.515-.515-2.06-.064-3.025-.257-3.862-.837-1.159-.644-1.223-1.03-1.223-6.05V307.055c-.129-.064-.257-.193-.386-.193ZM665.79,290a5.5,5.5,0,1,0,5.663,5.6,5.661,5.661,0,0,0-5.663-5.6Z" transform="translate(-354.625 223)" fill="#0c406c"/>
      <path id="Path_12509" data-name="Path 12509" d="M953.117,306.862c-6.114.579-8.173.708-14.8.837a.508.508,0,0,0-.515.515v1.8c0,.258.193.451.515.515,4.827.193,5.02.45,5.02,4.376v15.961c0,4.956-.064,5.406-1.223,6.05a7.277,7.277,0,0,1-3.8.772.5.5,0,0,0-.451.515v1.48a1,1,0,0,0,1.03.965h19.179a1,1,0,0,0,1.03-.965V338.2c0-.257-.193-.45-.515-.515-2.06-.064-3.025-.257-3.861-.837-1.159-.644-1.223-1.03-1.223-6.05V307.055c-.129-.064-.258-.193-.386-.193ZM948.226,290a5.5,5.5,0,1,0,5.664,5.6,5.661,5.661,0,0,0-5.664-5.6Z" transform="translate(-455.314 223)" fill="#0c406c"/>
      <path id="Path_12510" data-name="Path 12510" d="M710.253,332.065c-.386,6.114-1.609,8.624-4.441,8.624-2,0-2.832-1.416-2.832-5.213v-21.3h9.01v-3.025h-9.01V299.5h-4.7c-1.545,6.564-4.762,10.748-9.589,12.292-.129.064-.193.129-.193.257v1.931a.277.277,0,0,0,.258.257h4.119v20.208c0,4.634.386,5.985,2.124,7.98,1.609,1.8,4.119,2.767,7.337,2.767,4.441,0,7.659-1.738,9.4-5.084.965-1.8,1.223-3.411,1.48-7.916h-2.96Z" transform="translate(-366.458 219.615)" fill="#0c406c"/>
      <path id="Path_12511" data-name="Path 12511" d="M769.607,343.452c-1.158,1.287-2.124,1.8-3.089,1.8-1.416,0-2-.9-2-2.9V327.491c0-4.183-.837-6.049-3.733-8.109-2.9-2.124-7.337-3.282-12.357-3.282-8.3,0-15.124,4.183-15.124,9.4a5.046,5.046,0,0,0,5.277,4.762,4.923,4.923,0,0,0,5.084-5.02,4.85,4.85,0,0,0-1.866-3.8.519.519,0,0,1-.322-.386c0-.837,3.6-2.124,5.921-2.124,4.441,0,6.758,2.317,6.758,6.758v4.055A69.956,69.956,0,0,0,743.156,332c-7.723,2.317-11.456,5.857-11.456,10.683,0,5.084,4.312,8.238,11.07,8.238,5.535,0,8.881-1.416,12.228-5.342,1.48,3.54,4.055,5.342,7.659,5.342,3.346,0,6.371-2.124,8.688-5.921l-1.738-1.545Zm-15.446-5.342c0,4.7-2.832,8.173-6.629,8.173a4.662,4.662,0,0,1-4.891-4.891,8.46,8.46,0,0,1,5.084-7.272c1.416-.579,2.638-.837,6.436-1.351v5.342Z" transform="translate(-381.856 213.699)" fill="#0c406c"/>
      <path id="Path_12512" data-name="Path 12512" d="M838.52,347.506a.44.44,0,0,0-.451-.45,7.8,7.8,0,0,1-3.8-.772c-1.158-.643-1.223-1.094-1.223-6.05V328.264c0-4.183-.772-6.758-2.7-8.881a10.106,10.106,0,0,0-7.916-3.282c-4.827,0-8.624,2.188-11.842,6.564v-6.243a.277.277,0,0,0-.258-.257l-1.416.129c-.451,0-1.931.129-3.862.322-4.441.257-6.243.451-9.139.451a.508.508,0,0,0-.515.515v1.8a.508.508,0,0,0,.515.515c4.956,0,5.277.386,5.277,5.084v15.253c0,4.956-.064,5.406-1.223,6.05-.9.579-1.867.708-4.055.837a.554.554,0,0,0-.515.515v1.48a1,1,0,0,0,1.03.965h17.441a1,1,0,0,0,1.03-.965v-1.48a.546.546,0,0,0-.451-.515c-2.961-.193-3.218-.965-3.218-7.015v-8.688c0-5.6,2.9-9.4,6.951-9.4,3.475,0,4.956,1.866,4.956,6.371V340.17c0,6.178-.193,6.822-3.475,7.015a.5.5,0,0,0-.451.515v1.48a1,1,0,0,0,1.03.965h17.505a1,1,0,0,0,1.03-.965v-1.673Z" transform="translate(-404.561 213.699)" fill="#0c406c"/>
      <path id="Path_12513" data-name="Path 12513" d="M1002.441,338.16c-2.96,5.921-6.243,8.431-10.876,8.431-5.664,0-8.689-4.891-8.689-13.9,0-9.139,2.7-13.386,8.431-13.386,2.574,0,6.05,1.223,6.05,2,0,.193-.129.386-.643.386a4.494,4.494,0,0,0-3.8,4.5,5.327,5.327,0,0,0,5.342,5.342h.129a5.425,5.425,0,0,0,5.6-5.663c0-5.406-5.6-9.267-13.515-9.267-10.877,0-18.471,7.337-18.471,17.827,0,10.04,6.822,16.926,16.862,16.926,8.174,0,13.773-4.119,16.347-11.906l-2.767-1.287Z" transform="translate(-467.504 213.52)" fill="#0c406c"/>
      <path id="Path_12514" data-name="Path 12514" d="M1067.707,343.452c-1.159,1.287-2.124,1.8-3.089,1.8-1.416,0-2-.9-2-2.9V327.491c0-4.183-.837-6.049-3.733-8.109-2.9-2.124-7.337-3.282-12.357-3.282-8.3,0-15.124,4.183-15.124,9.4a5.046,5.046,0,0,0,5.277,4.762,4.923,4.923,0,0,0,5.084-5.02,4.85,4.85,0,0,0-1.866-3.8.519.519,0,0,1-.322-.386c0-.837,3.6-2.124,5.921-2.124,4.441,0,6.758,2.317,6.758,6.758v4.055A69.961,69.961,0,0,0,1041.255,332c-7.723,2.317-11.456,5.857-11.456,10.683,0,5.084,4.312,8.238,11.069,8.238,5.535,0,8.881-1.416,12.228-5.342,1.48,3.54,4.055,5.342,7.658,5.342,3.347,0,6.372-2.124,8.688-5.921l-1.737-1.545Zm-15.446-5.342c0,4.7-2.832,8.173-6.629,8.173a4.662,4.662,0,0,1-4.891-4.891,8.46,8.46,0,0,1,5.084-7.272c1.416-.579,2.639-.837,6.436-1.351v5.342Z" transform="translate(-488.104 213.699)" fill="#0c406c"/>
      <path id="Path_12515" data-name="Path 12515" d="M1085.566,316a2.681,2.681,0,0,0-2.768,2.639h0a2.61,2.61,0,0,0,2.639,2.639h.129a2.642,2.642,0,1,0,0-5.277m0,.515a2.157,2.157,0,0,1,2.188,2.124v.064a2.159,2.159,0,0,1-4.312.193V318.7a2.1,2.1,0,0,1,2.059-2.188h.064m1.609,3.347a.892.892,0,0,1-.258-.193,9.218,9.218,0,0,1-.708-.965.754.754,0,0,0,.579-.708c0-.579-.579-.708-1.03-.708h-1.48v.322c.322,0,.386,0,.386.386v1.416c0,.386-.064.386-.386.386v.322h1.416V319.8c-.386,0-.386,0-.386-.386V318.9h.064a.492.492,0,0,1,.322.129,5.585,5.585,0,0,0,.386.644,1.28,1.28,0,0,0,1.03.451l.064-.257Zm-1.931-1.287V317.8c0-.193.064-.257.258-.257a.5.5,0,0,1,.515.451v.064a.486.486,0,0,1-.257.451.816.816,0,0,1-.386.064Z" transform="translate(-506.993 213.734)" fill="#0c406c"/>
      <g id="Group_10389" data-name="Group 10389" transform="translate(212.504 574.445)">
        <g id="Group_10385" data-name="Group 10385" transform="translate(0 0)" clip-path="url(#clip-path)">
          <path id="Path_12625" data-name="Path 12625" d="M72.1,25.614c4.174-1.9,7.02-5.5,7.02-10.435V14.04C79.118,5.692,72.477,0,62.8,0H0V52.366H62.99c9.3,0,16.317-6.261,16.317-14.609V36.428A12.2,12.2,0,0,0,72.1,25.614ZM16.317,14.04H59.575c2.087,0,3.036.759,3.036,1.9v.569a2.63,2.63,0,0,1-2.846,2.656H16.317V14.04ZM63.18,35.669c0,1.328-1.518,2.277-3.415,2.277H16.507V33.013H59.955c1.708,0,3.225.759,3.225,1.9Zm44.966,16.7h40.033c12.332,0,19.542-6.261,19.542-16.886V0H151.595V32.634c0,3.984-1.708,5.5-6.071,5.5H110.8c-3.795,0-6.071-1.9-6.071-5.5V0H88.414V35.48c0,10.435,7.589,16.886,19.542,16.886Zm70.58,0h16.317V0H178.726Zm27.131,0H281.18V38.136H222.174V0H205.857Zm83.671,0h59.765c12.143,0,19.542-6.261,19.542-16.886V17.455c0-10.815-7.4-17.265-19.542-17.265H289.529V52.366Zm16.317-14.23V14.04h40.223c4.743,0,6.451,1.708,6.451,5.5V32.634c0,3.984-1.518,5.5-6.071,5.5Z" transform="translate(0 0)" fill="url(#linear-gradient)"/>
        </g>
      </g>
    </g>
    <g id="Group_10417" data-name="Group 10417">
      <path id="Path_12626" data-name="Path 12626" d="M293.434,278A20.425,20.425,0,0,0,273,298.434v73.132A20.425,20.425,0,0,0,293.434,392h73.132A20.425,20.425,0,0,0,387,371.566V298.434A20.425,20.425,0,0,0,366.566,278Z" transform="translate(-192.341 235.004)" fill="url(#linear-gradient)"/>
      <path id="Subtraction_19" data-name="Subtraction 19" d="M45.227,100.623h0A12.265,12.265,0,0,1,39.1,98.984L6.124,79.942A12.24,12.24,0,0,1,0,69.344l0-38.07a12.236,12.236,0,0,1,6.121-10.6l4.594-2.652V59.978h.036l0,3.275a12.249,12.249,0,0,0,6.119,10.589l22.311,12.88a12.243,12.243,0,0,0,12.227.007L73.649,73.923A12.244,12.244,0,0,0,79.782,63.3l-.029-25.661a12.241,12.241,0,0,0-6.119-10.584L51.323,14.175A12.247,12.247,0,0,0,39.1,14.169L22.712,23.6V11.1l16.38-9.454a12.223,12.223,0,0,1,12.238,0L84.311,20.683a12.239,12.239,0,0,1,6.122,10.6l0,38.07a12.239,12.239,0,0,1-6.12,10.6L51.343,98.984A12.245,12.245,0,0,1,45.227,100.623Z" transform="translate(92.489 519.451)" fill="#fff"/>
      <g id="Group_10390" data-name="Group 10390" transform="translate(109.271 541.832)">
        <g id="Group_1754" data-name="Group 1754" clip-path="url(#clip-path-2)">
          <path id="Path_2382" data-name="Path 2382" d="M101,81.384l-.882-1.943-.882,1.943-.862,1.9a3.242,3.242,0,0,0,.227,3.106l.634,1,.882,1.385L101,87.383l.634-1a3.241,3.241,0,0,0,.227-3.106Z" transform="translate(-71.58 -57.973)" fill="#fff"/>
          <path id="Path_2383" data-name="Path 2383" d="M101.638,45.1l-.761-1.563-.761,1.563-.743,1.527a2.459,2.459,0,0,0,.2,2.5l.547.8.761,1.115.761-1.115.547-.8a2.459,2.459,0,0,0,.2-2.5Z" transform="translate(-72.335 -31.774)" fill="#fff"/>
          <path id="Path_2384" data-name="Path 2384" d="M103.648,26.088l-.377-.774-.377.774-.368.756a1.217,1.217,0,0,0,.1,1.238l.271.4.377.552.377-.552.271-.4a1.217,1.217,0,0,0,.1-1.238Z" transform="translate(-74.729 -18.473)" fill="#fff"/>
          <path id="Path_2385" data-name="Path 2385" d="M87.186,30.919l-.9-1.508-.617,1.609-.6,1.572a2.479,2.479,0,0,0,.423,2.479l.618.762.86,1.061.657-1.162L88.1,34.9a2.453,2.453,0,0,0-.031-2.505Z" transform="translate(-61.96 -21.463)" fill="#fff"/>
          <path id="Path_2386" data-name="Path 2386" d="M86.226,88.489a4.231,4.231,0,0,1-1.453-2.976c-.112-1.95.335-3.044-1.9-5.541a12.406,12.406,0,0,1-.6,3.865,3.754,3.754,0,0,0,3.95,4.652" transform="translate(-59.933 -58.362)" fill="#fff"/>
          <path id="Path_2387" data-name="Path 2387" d="M62.994,97.861a5.754,5.754,0,0,1-3.317-2.681c-1.565-2.362-3.838-3.638-6.782-2.968a14.884,14.884,0,0,1,3.168,3.064,6.756,6.756,0,0,0,6.931,2.585" transform="translate(-38.601 -67.164)" fill="#fff"/>
          <path id="Path_2388" data-name="Path 2388" d="M90.353,69.215a9.306,9.306,0,0,0-1.528-2.457c-1.118-1.341.223-3.479.783-4.181a10.8,10.8,0,0,0,1.267,1.979c.931,1.213.783,2.2-.522,4.659" transform="translate(-64.506 -45.667)" fill="#fff"/>
          <path id="Path_2389" data-name="Path 2389" d="M78.607,55.6a3.906,3.906,0,0,1,.6-1.6c.634-1.245,0-2.9-1.751-4.181a19.274,19.274,0,0,1-.633,2.33c-.41,1.181.149,2.234,1.789,3.447" transform="translate(-55.965 -36.358)" fill="#fff"/>
          <path id="Path_2390" data-name="Path 2390" d="M57.546,59.863a3.76,3.76,0,0,1,.034-1.675c.187-1.348-.978-2.781-3.085-3.57a18.829,18.829,0,0,1,.178,2.387c.005,1.232.9,2.1,2.874,2.858" transform="translate(-39.768 -39.858)" fill="#fff"/>
          <path id="Path_2391" data-name="Path 2391" d="M57.02,80.5a4.292,4.292,0,0,1-.928-1.475c-.607-1.254-2.442-2.016-4.73-1.822a21.977,21.977,0,0,1,1.519,2.008c.708,1.072,1.982,1.458,4.139,1.289" transform="translate(-37.482 -56.32)" fill="#fff"/>
          <path id="Path_2392" data-name="Path 2392" d="M71.921,71.127a3.974,3.974,0,0,0,.372-3.351,12.737,12.737,0,0,0-2.311-3.191s-1.6,4.532,1.938,6.542" transform="translate(-50.807 -47.132)" fill="#fff"/>
          <path id="Path_2393" data-name="Path 2393" d="M114.526,30.919l.9-1.508.616,1.609.6,1.572a2.479,2.479,0,0,1-.422,2.479l-.618.762-.86,1.061-.657-1.162-.472-.835a2.453,2.453,0,0,1,.032-2.505Z" transform="translate(-82.673 -21.463)" fill="#fff"/>
          <path id="Path_2394" data-name="Path 2394" d="M113.921,88.489a4.231,4.231,0,0,0,1.453-2.976c.112-1.95-.335-3.044,1.9-5.541a12.406,12.406,0,0,0,.6,3.865,3.754,3.754,0,0,1-3.95,4.652" transform="translate(-83.136 -58.362)" fill="#fff"/>
          <path id="Path_2395" data-name="Path 2395" d="M120.954,97.861a5.754,5.754,0,0,0,3.317-2.681c1.565-2.362,3.838-3.638,6.782-2.968a14.883,14.883,0,0,0-3.168,3.064,6.756,6.756,0,0,1-6.931,2.585" transform="translate(-88.268 -67.164)" fill="#fff"/>
          <path id="Path_2396" data-name="Path 2396" d="M112.556,69.215a9.3,9.3,0,0,1,1.528-2.457c1.118-1.341-.223-3.479-.783-4.181a10.8,10.8,0,0,1-1.267,1.979c-.932,1.213-.783,2.2.522,4.659" transform="translate(-81.324 -45.667)" fill="#fff"/>
          <path id="Path_2397" data-name="Path 2397" d="M125.178,55.6a3.907,3.907,0,0,0-.6-1.6c-.634-1.245,0-2.9,1.751-4.181a19.278,19.278,0,0,0,.633,2.33c.41,1.181-.149,2.234-1.789,3.447" transform="translate(-90.741 -36.358)" fill="#fff"/>
          <path id="Path_2398" data-name="Path 2398" d="M137.249,45.906a3.2,3.2,0,0,0-.243-1.392c-.328-1.108.452-2.388,2.094-3.2a15.865,15.865,0,0,0,.16,2c.154,1.026-.471,1.817-2.011,2.595" transform="translate(-99.928 -30.147)" fill="#fff"/>
          <path id="Path_2399" data-name="Path 2399" d="M138.921,80.5a4.293,4.293,0,0,0,.928-1.475c.607-1.254,2.442-2.016,4.73-1.822a21.969,21.969,0,0,0-1.519,2.008c-.708,1.072-1.982,1.458-4.139,1.289" transform="translate(-101.38 -56.32)" fill="#fff"/>
          <path id="Path_2400" data-name="Path 2400" d="M131.518,71.127a3.973,3.973,0,0,1-.373-3.351,12.735,12.735,0,0,1,2.31-3.191s1.6,4.532-1.938,6.542" transform="translate(-95.553 -47.132)" fill="#fff"/>
          <path id="Path_2401" data-name="Path 2401" d="M67.976,45.906a3.2,3.2,0,0,1,.243-1.392c.328-1.108-.452-2.388-2.094-3.2a15.9,15.9,0,0,1-.16,2c-.154,1.026.47,1.817,2.011,2.595" transform="translate(-48.123 -30.147)" fill="#fff"/>
          <path id="Path_2402" data-name="Path 2402" d="M98.977,118.223s-1.284,2.546-1.078,10.365c.09,3.42,1.438,13.547,1.438,13.547H91.968s1.312-9.44,1.438-13.547c.214-6.984-1.078-10.365-1.078-10.365l3.295,1.081Z" transform="translate(-67.115 -86.275)" fill="#fff"/>
          <path id="Path_2403" data-name="Path 2403" d="M104.561,5.981a7.938,7.938,0,0,1-.3-1.5,13.337,13.337,0,0,1-.083-1.5,13.142,13.142,0,0,1,.082-1.5,7.851,7.851,0,0,1,.3-1.5,7.85,7.85,0,0,1,.3,1.5,13.145,13.145,0,0,1,.082,1.5,13.335,13.335,0,0,1-.083,1.5,7.933,7.933,0,0,1-.3,1.5" transform="translate(-76.023)" fill="#fff"/>
          <path id="Path_2404" data-name="Path 2404" d="M97.768,11.427A7.714,7.714,0,0,1,97.285,10a13.14,13.14,0,0,1-.367-2.923,7.63,7.63,0,0,1,.118-1.5,7.638,7.638,0,0,1,.484,1.424,12.715,12.715,0,0,1,.265,1.451,12.9,12.9,0,0,1,.1,1.472,7.712,7.712,0,0,1-.117,1.5" transform="translate(-70.727 -4.074)" fill="#fff"/>
          <path id="Path_2405" data-name="Path 2405" d="M90.471,12.163a6.161,6.161,0,0,1-.618-1.186,10.173,10.173,0,0,1-.406-1.241A10,10,0,0,1,89.2,8.454a6.079,6.079,0,0,1-.032-1.337A6.082,6.082,0,0,1,89.788,8.3a9.958,9.958,0,0,1,.405,1.241,10.1,10.1,0,0,1,.245,1.282,6.142,6.142,0,0,1,.033,1.337" transform="translate(-65.055 -5.194)" fill="#fff"/>
          <path id="Path_2406" data-name="Path 2406" d="M83.066,13.945a4.922,4.922,0,0,1-.705-.96,7.938,7.938,0,0,1-.5-1.041,7.8,7.8,0,0,1-.348-1.1,4.842,4.842,0,0,1-.142-1.183,4.855,4.855,0,0,1,.706.96,7.8,7.8,0,0,1,.5,1.041,7.969,7.969,0,0,1,.347,1.1,4.911,4.911,0,0,1,.143,1.183" transform="translate(-59.38 -7.049)" fill="#fff"/>
          <path id="Path_2407" data-name="Path 2407" d="M76.473,17.86a6.484,6.484,0,0,1-.911-1.028,10.732,10.732,0,0,1-.719-1.133,10.5,10.5,0,0,1-.574-1.213,6.393,6.393,0,0,1-.381-1.32,6.386,6.386,0,0,1,.912,1.027,10.548,10.548,0,0,1,.718,1.134,10.783,10.783,0,0,1,.573,1.214,6.484,6.484,0,0,1,.381,1.319" transform="translate(-53.921 -9.608)" fill="#fff"/>
          <path id="Path_2408" data-name="Path 2408" d="M70.691,22.878A9.35,9.35,0,0,1,69.5,21.73a15.8,15.8,0,0,1-1.015-1.276,15.6,15.6,0,0,1-.88-1.372,9.261,9.261,0,0,1-.7-1.5A9.285,9.285,0,0,1,68.1,18.73a15.419,15.419,0,0,1,1.014,1.276,15.8,15.8,0,0,1,.879,1.373,9.418,9.418,0,0,1,.7,1.5" transform="translate(-48.824 -12.831)" fill="#fff"/>
          <path id="Path_2409" data-name="Path 2409" d="M65.141,28.553a11.985,11.985,0,0,1-1.272-1.363l-1.142-1.407L61.591,24.37a11.867,11.867,0,0,1-1.063-1.531,11.554,11.554,0,0,1,1.5,1.111,10.719,10.719,0,0,1,2.341,2.9,11.726,11.726,0,0,1,.771,1.7" transform="translate(-44.171 -16.667)" fill="#fff"/>
          <path id="Path_2410" data-name="Path 2410" d="M110.894,11.427a7.733,7.733,0,0,1-.117-1.5,12.9,12.9,0,0,1,.1-1.472,12.712,12.712,0,0,1,.265-1.451,7.636,7.636,0,0,1,.484-1.424,7.631,7.631,0,0,1,.118,1.5,12.766,12.766,0,0,1-.1,1.472A12.9,12.9,0,0,1,111.376,10a7.714,7.714,0,0,1-.483,1.424" transform="translate(-80.841 -4.074)" fill="#fff"/>
          <path id="Path_2411" data-name="Path 2411" d="M117.158,12.163a6.141,6.141,0,0,1,.033-1.337,10.1,10.1,0,0,1,.245-1.282,9.956,9.956,0,0,1,.405-1.241,6.082,6.082,0,0,1,.619-1.186,6.079,6.079,0,0,1-.032,1.337,10.012,10.012,0,0,1-.246,1.282,10.176,10.176,0,0,1-.406,1.241,6.161,6.161,0,0,1-.618,1.186" transform="translate(-85.481 -5.194)" fill="#fff"/>
          <path id="Path_2412" data-name="Path 2412" d="M123.623,13.945a4.91,4.91,0,0,1,.143-1.183,7.965,7.965,0,0,1,.347-1.1,7.8,7.8,0,0,1,.5-1.041,4.854,4.854,0,0,1,.706-.96,4.845,4.845,0,0,1-.142,1.183,7.8,7.8,0,0,1-.348,1.1,7.932,7.932,0,0,1-.5,1.041,4.921,4.921,0,0,1-.705.96" transform="translate(-90.215 -7.049)" fill="#fff"/>
          <path id="Path_2413" data-name="Path 2413" d="M127.822,17.86a6.484,6.484,0,0,1,.381-1.319,10.775,10.775,0,0,1,.573-1.214,10.547,10.547,0,0,1,.718-1.134,6.384,6.384,0,0,1,.912-1.027,6.392,6.392,0,0,1-.38,1.32,10.507,10.507,0,0,1-.574,1.213,10.739,10.739,0,0,1-.719,1.133,6.486,6.486,0,0,1-.911,1.028" transform="translate(-93.28 -9.608)" fill="#fff"/>
          <path id="Path_2414" data-name="Path 2414" d="M130.353,22.878a9.371,9.371,0,0,1,.7-1.5,15.745,15.745,0,0,1,.879-1.373,15.526,15.526,0,0,1,1.014-1.276,9.286,9.286,0,0,1,1.194-1.148,9.281,9.281,0,0,1-.7,1.5,15.526,15.526,0,0,1-.88,1.372,15.8,15.8,0,0,1-1.015,1.276,9.37,9.37,0,0,1-1.193,1.148" transform="translate(-95.127 -12.831)" fill="#fff"/>
          <path id="Path_2415" data-name="Path 2415" d="M133.676,28.553a11.723,11.723,0,0,1,.771-1.7,10.719,10.719,0,0,1,2.341-2.9,11.554,11.554,0,0,1,1.5-1.111,11.865,11.865,0,0,1-1.063,1.531l-1.135,1.413-1.142,1.407a11.984,11.984,0,0,1-1.272,1.363" transform="translate(-97.552 -16.667)" fill="#fff"/>
          <path id="Path_2416" data-name="Path 2416" d="M145.291,59.674A3.759,3.759,0,0,0,145.257,58c-.187-1.348.978-2.781,3.085-3.57a18.818,18.818,0,0,0-.178,2.387c-.005,1.232-.9,2.1-2.874,2.858" transform="translate(-105.99 -39.72)" fill="#fff"/>
          <path id="Path_2417" data-name="Path 2417" d="M11.815,92.228s2.516.944,7.459,5.961a46.511,46.511,0,0,1,4.673,5.273,20.093,20.093,0,0,0-7.4-13.225,21.006,21.006,0,0,0-2.108-1.649,13.473,13.473,0,0,1-4.193-4.913s0,2.435.04,2.691c-.282-.131-.557-.263-.826-.4-1.308-.946-3.767-3.178-4.606-5.528a15.064,15.064,0,0,0-.345,2.426A20.822,20.822,0,0,1,0,78.078a23.637,23.637,0,0,0,2.557,9.714A19.533,19.533,0,0,1,.133,85.8a15.591,15.591,0,0,0,3.774,6.425,19.337,19.337,0,0,0,5.456,3.7l.143.108-2.543-.255a22.254,22.254,0,0,0,6.156,4.134c3.274,1.584,6.078,2.648,8.673,4.567a59.875,59.875,0,0,0-9.976-12.251" transform="translate(0 -56.979)" fill="#fff"/>
          <path id="Path_2418" data-name="Path 2418" d="M133.621,92.228s-2.516.944-7.459,5.961a46.512,46.512,0,0,0-4.673,5.273,20.093,20.093,0,0,1,7.4-13.225A21.005,21.005,0,0,1,131,88.589a13.473,13.473,0,0,0,4.194-4.913s0,2.435-.04,2.691c.282-.131.557-.263.826-.4,1.308-.946,3.767-3.178,4.606-5.528a15.068,15.068,0,0,1,.345,2.426,20.823,20.823,0,0,0,4.506-4.79,23.637,23.637,0,0,1-2.557,9.714A19.528,19.528,0,0,0,145.3,85.8a15.591,15.591,0,0,1-3.774,6.425,19.337,19.337,0,0,1-5.456,3.7l-.143.108,2.543-.255a22.253,22.253,0,0,1-6.156,4.134c-3.274,1.584-6.078,2.648-8.673,4.567a59.876,59.876,0,0,1,9.976-12.251" transform="translate(-88.659 -56.979)" fill="#fff"/>
        </g>
      </g>
    </g>
  </g>
</svg>
