<svg width="24" height="24" viewBox="0 0 24 24" fill="none" xmlns="http://www.w3.org/2000/svg">
<path d="M2.75086 17.9997H21.2509C21.6651 17.9997 22.0009 18.3355 22.0009 18.7497C22.0009 19.1294 21.7187 19.4432 21.3526 19.4928L21.2509 19.4997H2.75086C2.33665 19.4997 2.00086 19.1639 2.00086 18.7497C2.00086 18.37 2.28301 18.0562 2.64909 18.0065L2.75086 17.9997H21.2509H2.75086ZM2.75086 11.5027H21.2509C21.6651 11.5027 22.0009 11.8385 22.0009 12.2527C22.0009 12.6324 21.7187 12.9462 21.3526 12.9959L21.2509 13.0027H2.75086C2.33665 13.0027 2.00086 12.6669 2.00086 12.2527C2.00086 11.873 2.28301 11.5592 2.64909 11.5095L2.75086 11.5027H21.2509H2.75086ZM2.75 5.00293H21.25C21.6642 5.00293 22 5.33872 22 5.75293C22 6.13263 21.7178 6.44642 21.3518 6.49608L21.25 6.50293H2.75C2.33579 6.50293 2 6.16714 2 5.75293C2 5.37323 2.28215 5.05944 2.64823 5.00978L2.75 5.00293H21.25H2.75Z" fill="#212121"/>
</svg>
