<svg width="24" height="24" viewBox="0 0 24 24" fill="none" xmlns="http://www.w3.org/2000/svg">
<path d="M13.2361 3.27233C12.5527 2.58891 11.4447 2.58891 10.7612 3.27233L7.04987 6.98371C4.31671 9.71686 4.31671 14.1482 7.04987 16.8813C8.2254 18.0569 9.71509 18.7268 11.2487 18.8911V21.2496C11.2487 21.6638 11.5845 21.9996 11.9987 21.9996C12.4129 21.9996 12.7487 21.6638 12.7487 21.2496V18.8911C14.2823 18.7268 15.772 18.0569 16.9475 16.8813C19.6807 14.1482 19.6807 9.71686 16.9475 6.98371L13.2361 3.27233ZM12.7487 17.3801V11.7496C12.7487 11.3354 12.4129 10.9996 11.9987 10.9996C11.5845 10.9996 11.2487 11.3354 11.2487 11.7496V17.3801C10.1008 17.223 8.99299 16.7031 8.11053 15.8207C5.96316 13.6733 5.96316 10.1917 8.11053 8.04437L11.8219 4.33299C11.9195 4.23536 12.0778 4.23536 12.1755 4.33299L15.8868 8.04437C18.0342 10.1917 18.0342 13.6733 15.8868 15.8207C15.0044 16.7031 13.8966 17.223 12.7487 17.3801Z" fill="#212121"/>
</svg>
