<svg width="40" height="40" viewBox="0 0 40 40" fill="none" xmlns="http://www.w3.org/2000/svg">
<path d="M20 23C18.2 23 16.5083 23.3917 14.925 24.175C13.3417 24.9583 12.0667 26.1 11.1 27.6C10.7333 28.1333 10.6833 28.6667 10.95 29.2C11.2167 29.7333 11.65 30 12.25 30C12.5167 30 12.7583 29.9417 12.975 29.825C13.1917 29.7083 13.3833 29.5333 13.55 29.3C14.3167 28.2667 15.2667 27.4583 16.4 26.875C17.5333 26.2917 18.7333 26 20 26C21.2667 26 22.4667 26.2917 23.6 26.875C24.7333 27.4583 25.6833 28.2667 26.45 29.3C26.5833 29.5333 26.7583 29.7083 26.975 29.825C27.1917 29.9417 27.4333 30 27.7 30C28.3 30 28.7333 29.725 29 29.175C29.2667 28.625 29.2167 28.0667 28.85 27.5C27.8833 26.0333 26.6083 24.9167 25.025 24.15C23.4417 23.3833 21.7667 23 20 23ZM27 18C27.8333 18 28.5417 17.7083 29.125 17.125C29.7083 16.5417 30 15.8333 30 15C30 14.1667 29.7083 13.4583 29.125 12.875C28.5417 12.2917 27.8333 12 27 12C26.1667 12 25.4583 12.2917 24.875 12.875C24.2917 13.4583 24 14.1667 24 15C24 15.8333 24.2917 16.5417 24.875 17.125C25.4583 17.7083 26.1667 18 27 18ZM13 18C13.8333 18 14.5417 17.7083 15.125 17.125C15.7083 16.5417 16 15.8333 16 15C16 14.1667 15.7083 13.4583 15.125 12.875C14.5417 12.2917 13.8333 12 13 12C12.1667 12 11.4583 12.2917 10.875 12.875C10.2917 13.4583 10 14.1667 10 15C10 15.8333 10.2917 16.5417 10.875 17.125C11.4583 17.7083 12.1667 18 13 18ZM20 40C17.2333 40 14.6333 39.475 12.2 38.425C9.76667 37.375 7.65 35.95 5.85 34.15C4.05 32.35 2.625 30.2333 1.575 27.8C0.525 25.3667 0 22.7667 0 20C0 17.2333 0.525 14.6333 1.575 12.2C2.625 9.76667 4.05 7.65 5.85 5.85C7.65 4.05 9.76667 2.625 12.2 1.575C14.6333 0.525 17.2333 0 20 0C22.7667 0 25.3667 0.525 27.8 1.575C30.2333 2.625 32.35 4.05 34.15 5.85C35.95 7.65 37.375 9.76667 38.425 12.2C39.475 14.6333 40 17.2333 40 20C40 22.7667 39.475 25.3667 38.425 27.8C37.375 30.2333 35.95 32.35 34.15 34.15C32.35 35.95 30.2333 37.375 27.8 38.425C25.3667 39.475 22.7667 40 20 40ZM20 36C24.4667 36 28.25 34.45 31.35 31.35C34.45 28.25 36 24.4667 36 20C36 15.5333 34.45 11.75 31.35 8.65C28.25 5.55 24.4667 4 20 4C15.5333 4 11.75 5.55 8.65 8.65C5.55 11.75 4 15.5333 4 20C4 24.4667 5.55 28.25 8.65 31.35C11.75 34.45 15.5333 36 20 36Z" fill="#A4A7AE"/>
</svg>
