<svg width="20" height="20" viewBox="0 0 20 20" fill="none" xmlns="http://www.w3.org/2000/svg">
<path d="M6.98608 2.06589L6.26939 2.28192C4.96586 2.67484 4.00847 3.78801 3.815 5.13565C3.51803 7.20438 4.18226 9.62242 5.78271 12.3945C7.37979 15.1607 9.13769 16.9433 11.0729 17.7231C12.3425 18.2346 13.7938 17.9592 14.7877 17.018L15.3305 16.5039C16.0579 15.815 16.1634 14.694 15.5771 13.8815L14.2205 12.0014C13.8448 11.4807 13.1795 11.2569 12.5655 11.4446L10.5148 12.0716L10.4618 12.082C10.2357 12.115 9.71443 11.6259 9.06429 10.4999C8.38415 9.32181 8.24319 8.63298 8.43096 8.45541L9.47432 7.48248C10.2563 6.75332 10.4873 5.60728 10.0489 4.63213L9.38744 3.16075C8.97554 2.24451 7.9479 1.77597 6.98608 2.06589ZM8.47536 3.57077L9.13681 5.04215C9.39965 5.62682 9.26114 6.31395 8.79232 6.75113L7.74642 7.72645C7.07732 8.35918 7.29894 9.44218 8.19827 10.9999C9.04447 12.4655 9.81646 13.1898 10.646 13.0642L10.7703 13.0376L12.8579 12.4009C13.0626 12.3383 13.2843 12.413 13.4096 12.5865L14.7662 14.4666C15.0593 14.8729 15.0066 15.4334 14.6428 15.7778L14.1001 16.2919C13.3902 16.9642 12.3535 17.1609 11.4467 16.7955C9.74859 16.1113 8.14378 14.484 6.64873 11.8945C5.15063 9.29969 4.54433 7.09254 4.80485 5.27775C4.94304 4.31515 5.6269 3.52003 6.55799 3.23937L7.27468 3.02334C7.75559 2.87838 8.26941 3.11265 8.47536 3.57077Z" fill="white"/>
</svg>
