<svg width="20" height="20" viewBox="0 0 20 20" fill="none" xmlns="http://www.w3.org/2000/svg">
<path d="M10 12C11.1046 12 12 11.1046 12 10C12 8.89543 11.1046 8 10 8C8.89543 8 8 8.89543 8 10C8 11.1046 8.89543 12 10 12ZM9.5 6.03095V4.5C9.5 4.22386 9.72386 4 10 4C10.2761 4 10.5 4.22386 10.5 4.5V6.03095C12.3094 6.25657 13.7434 7.69064 13.9691 9.5H15.5C15.7761 9.5 16 9.72386 16 10C16 10.2761 15.7761 10.5 15.5 10.5H13.9691C13.7434 12.3097 12.3089 13.7439 10.4991 13.9692C10.4997 13.9794 10.5 13.9896 10.5 14V15.5C10.5 15.7761 10.2761 16 10 16C9.72386 16 9.5 15.7761 9.5 15.5V14C9.5 13.9896 9.50032 13.9794 9.50094 13.9692C7.69083 13.7439 6.25612 12.3092 6.03083 10.4991C6.02063 10.4997 6.01035 10.5 6 10.5H4.5C4.22386 10.5 4 10.2761 4 10C4 9.72386 4.22386 9.5 4.5 9.5H6C6.01035 9.5 6.02063 9.50031 6.03083 9.50094C6.25608 7.69114 7.69033 6.25661 9.5 6.03095ZM7 10C7 11.6569 8.34315 13 10 13C11.6569 13 13 11.6569 13 10C13 8.34315 11.6569 7 10 7C8.34315 7 7 8.34315 7 10Z" fill="#414651"/>
</svg>
