<svg width="20" height="20" viewBox="0 0 20 20" fill="none" xmlns="http://www.w3.org/2000/svg">
<path d="M9.16289 16.8666C9.36683 17.0528 9.68308 17.0384 9.86926 16.8345C10.0554 16.6305 10.041 16.3143 9.83711 16.1281L3.66925 10.4974H17.5C17.7761 10.4974 18 10.2735 18 9.99736C18 9.72122 17.7761 9.49736 17.5 9.49736H3.67214L9.83711 3.86927C10.041 3.68309 10.0554 3.36684 9.86926 3.16289C9.68308 2.95895 9.36683 2.94456 9.16289 3.13074L2.24654 9.44478C2.10659 9.57254 2.02676 9.74008 2.00705 9.91323C2.00241 9.94058 2 9.96869 2 9.99736C2 10.0242 2.00212 10.0506 2.0062 10.0763C2.02438 10.2522 2.10449 10.4229 2.24654 10.5526L9.16289 16.8666Z" fill="#535862"/>
</svg>
